<svg width="119" height="32" viewBox="0 0 119 32" fill="none" xmlns="http://www.w3.org/2000/svg">
<path d="M22.48 0.859998C28.1333 0.859998 30.96 1.51333 30.96 2.82C30.96 3.27333 30.8533 3.66 30.64 3.98C30.4533 4.3 30.1733 4.46 29.8 4.46H29.68C24.8 4.03333 21.92 3.82 21.04 3.82C20.16 3.82 19.2533 3.87333 18.32 3.98C17.5467 8.40667 16.7467 12.2067 15.92 15.38H20.32C20.88 15.38 21.16 15.82 21.16 16.7C21.16 17.5533 20.88 17.98 20.32 17.98L15.36 18.26C15.36 18.2867 15.2933 18.5267 15.16 18.98C13.96 23.1133 12.9333 25.9133 12.08 27.38C10.56 29.94 8.37333 31.22 5.52 31.22C4.48 31.22 3.42667 30.9933 2.36 30.54C1.32 30.0867 0.613333 29.5267 0.24 28.86C0.186667 28.78 0.16 28.58 0.16 28.26C0.16 27.9133 0.333333 27.5133 0.68 27.06C1.05333 26.58 1.44 26.34 1.84 26.34C1.94667 26.34 2.04 26.3667 2.12 26.42C2.22667 26.4733 2.42667 26.58 2.72 26.74L3.76 27.22C4.16 27.4333 4.72 27.54 5.44 27.54C7.01333 27.54 8.30667 26.7933 9.32 25.3C10.2 23.9667 11.04 21.62 11.84 18.26H11.24C10.0933 18.26 9.52 17.8867 9.52 17.14C9.52 16.3667 10.5067 15.86 12.48 15.62C12.6933 14.7667 13.0267 13.4733 13.48 11.74C13.9333 9.98 14.3333 8.42 14.68 7.06C15.0267 5.7 15.2667 4.76667 15.4 4.26C12.0667 4.63333 9.45333 5.63333 7.56 7.26C5.69333 8.88667 4.76 10.7667 4.76 12.9C4.76 14.5 5.29333 16.0067 6.36 17.42C6.44 17.5533 6.48 17.66 6.48 17.74C6.48 18.1133 5.94667 18.3 4.88 18.3C3.81333 18.3 3.06667 17.98 2.64 17.34C1.68 15.98 1.2 14.4467 1.2 12.74C1.2 9.78 2.68 7.11333 5.64 4.74C7.08 3.56667 9.01333 2.63333 11.44 1.94C13.8667 1.24666 16.5867 0.899998 19.6 0.899998L22.48 0.859998ZM26.9031 28.62C25.5698 28.62 24.5431 28.0867 23.8231 27.02C23.1031 25.9267 22.7431 24.4467 22.7431 22.58C22.7431 22.02 22.7565 21.5933 22.7831 21.3C23.1298 17.4333 24.1431 13.4067 25.8231 9.22C26.6498 7.22 27.6765 5.56667 28.9031 4.26C30.1298 2.92667 31.4231 2.26 32.7831 2.26C33.5831 2.26 34.2231 2.52667 34.7031 3.06C35.1831 3.56667 35.4231 4.20667 35.4231 4.98V5.3C35.1565 7.99333 34.0631 10.8067 32.1431 13.74C30.2231 16.6733 28.1031 19.0467 25.7831 20.86C25.6765 21.7133 25.6231 22.3667 25.6231 22.82C25.6231 24.98 26.2631 26.06 27.5431 26.06C28.8765 26.06 30.3565 25.1267 31.9831 23.26C32.1698 23.0733 32.3965 22.98 32.6631 22.98C32.9565 22.98 33.2231 23.1 33.4631 23.34C33.7298 23.5533 33.8631 23.8333 33.8631 24.18C33.8631 24.5 33.7031 24.8333 33.3831 25.18C31.3565 27.4733 29.1965 28.62 26.9031 28.62ZM31.7831 5.54C30.6631 5.54 29.5298 6.96667 28.3831 9.82C27.2631 12.6733 26.5031 15.38 26.1031 17.94C27.6765 16.18 29.1165 14.18 30.4231 11.94C31.7565 9.7 32.4365 7.83333 32.4631 6.34C32.4631 5.80667 32.2365 5.54 31.7831 5.54ZM31.5441 23.34C31.5441 21.3667 32.1841 19.54 33.4641 17.86C34.7707 16.1533 36.3441 15.3 38.1841 15.3C39.2774 15.3 40.1841 15.6067 40.9041 16.22C41.6241 16.8333 41.9841 17.66 41.9841 18.7C41.9841 20.1667 41.3841 21.3533 40.1841 22.26C38.9841 23.1667 37.1707 23.8733 34.7441 24.38C35.1174 25.5267 36.0774 26.1 37.6241 26.1C39.7574 26.1 41.7707 25.1933 43.6641 23.38C43.7707 23.2733 43.9307 23.22 44.1441 23.22C44.3841 23.22 44.5974 23.3133 44.7841 23.5C44.9974 23.6867 45.1041 23.9133 45.1041 24.18C45.1041 24.4467 45.0107 24.7133 44.8241 24.98C44.1574 25.9133 43.1041 26.78 41.6641 27.58C40.2241 28.3533 38.7174 28.74 37.1441 28.74C35.5974 28.74 34.2774 28.2867 33.1841 27.38C32.0907 26.4467 31.5441 25.1 31.5441 23.34ZM38.2241 17.9C37.3707 17.9 36.5441 18.4067 35.7441 19.42C34.9441 20.4067 34.5441 21.4733 34.5441 22.62C37.8774 21.4733 39.5441 20.2733 39.5441 19.02C39.5441 18.2733 39.1041 17.9 38.2241 17.9ZM48.3875 25.3C47.9608 25.8867 47.2675 26.9133 46.3075 28.38C46.0142 28.8333 45.6542 29.06 45.2275 29.06C44.8275 29.06 44.4675 28.8867 44.1475 28.54C43.8542 28.1933 43.7075 27.8067 43.7075 27.38C43.7075 26.9267 43.9875 26.5133 44.5475 26.14C45.1075 25.74 46.0008 24.82 47.2275 23.38C46.9075 22.8467 46.3608 21.9 45.5875 20.54C44.8408 19.18 44.2142 18.0733 43.7075 17.22C43.6008 16.9533 43.5475 16.7133 43.5475 16.5C43.5475 16.2867 43.7075 16.06 44.0275 15.82C44.3742 15.5533 44.6942 15.42 44.9875 15.42C45.3075 15.42 45.5075 15.5 45.5875 15.66C46.0942 16.4867 46.7075 17.54 47.4275 18.82C48.1475 20.0733 48.6275 20.9 48.8675 21.3L52.7075 16.42C53.4008 15.5667 54.2542 15.14 55.2675 15.14C55.8808 15.14 56.3875 15.3133 56.7875 15.66C57.2142 15.98 57.4275 16.4867 57.4275 17.18C57.4275 17.8467 57.2008 18.18 56.7475 18.18C56.6142 18.18 56.3208 18.1133 55.8675 17.98C55.4408 17.8467 55.0408 17.78 54.6675 17.78C54.2942 17.78 53.9342 18.0067 53.5875 18.46L50.0275 23.18C51.3342 25.3133 52.4542 26.38 53.3875 26.38C53.8408 26.38 54.2675 26.2467 54.6675 25.98C55.0675 25.6867 55.3742 25.3933 55.5875 25.1C55.8275 24.8067 56.1208 24.4067 56.4675 23.9C56.8142 23.3933 57.0808 23.02 57.2675 22.78C57.4542 22.54 57.6808 22.42 57.9475 22.42C58.2142 22.42 58.4142 22.5267 58.5475 22.74C58.7075 22.9533 58.7875 23.22 58.7875 23.54C58.7875 23.8333 58.7342 24.06 58.6275 24.22C58.5475 24.3533 58.3608 24.7133 58.0675 25.3C57.7742 25.86 57.3875 26.46 56.9075 27.1C56.0008 28.3 54.8942 28.9 53.5875 28.9C51.7475 28.9 50.0142 27.7 48.3875 25.3ZM56.7944 24.66C56.7944 23.4867 57.0077 22.1133 57.4344 20.54C57.861 18.94 58.2877 17.7533 58.7144 16.98C59.141 16.2067 59.501 15.7533 59.7944 15.62C60.1144 15.46 60.461 15.38 60.8344 15.38C61.2344 15.38 61.5677 15.4733 61.8344 15.66C62.1277 15.8467 62.2744 16.0467 62.2744 16.26C62.2744 16.4733 62.1144 16.8467 61.7944 17.38C61.501 17.9133 61.1144 18.9533 60.6344 20.5C60.1544 22.0467 59.9144 23.2867 59.9144 24.22C59.9144 25.4733 60.381 26.1 61.3144 26.1C62.4344 26.1 63.781 25.1933 65.3544 23.38C65.5677 23.1133 65.821 22.98 66.1144 22.98C66.4344 22.98 66.7144 23.1 66.9544 23.34C67.221 23.5533 67.3544 23.82 67.3544 24.14C67.3544 24.4333 67.2077 24.7667 66.9144 25.14C64.941 27.46 62.8877 28.62 60.7544 28.62C59.5544 28.62 58.5944 28.26 57.8744 27.54C57.1544 26.7933 56.7944 25.8333 56.7944 24.66ZM62.6744 12.74C61.2344 12.74 60.5144 12.1133 60.5144 10.86C60.5144 10.1933 60.741 9.67333 61.1944 9.3C61.6744 8.9 62.2744 8.7 62.9944 8.7C64.3277 8.7 64.9944 9.3 64.9944 10.5C64.9944 11.1933 64.781 11.74 64.3544 12.14C63.9277 12.54 63.3677 12.74 62.6744 12.74ZM70.9175 26.1C72.2775 26.1 73.2908 25.14 73.9575 23.22C73.2108 22.9 72.8375 22.3 72.8375 21.42C72.8375 21.0467 72.9842 20.6867 73.2775 20.34C73.5975 19.9933 73.9708 19.7667 74.3975 19.66V19.54C74.3975 18.98 74.2775 18.5667 74.0375 18.3C73.7975 18.0333 73.3175 17.9 72.5975 17.9C71.4775 17.9 70.5175 18.42 69.7175 19.46C68.9175 20.4733 68.5175 21.6067 68.5175 22.86C68.5175 25.02 69.3175 26.1 70.9175 26.1ZM77.6775 5.82C77.5442 7.42 76.8242 9.36667 75.5175 11.66C74.2108 13.9533 72.8908 15.62 71.5575 16.66L71.9975 16.38C72.7708 15.8467 73.7308 15.58 74.8775 15.58C75.4908 15.58 76.0775 15.9267 76.6375 16.62C77.1975 17.3133 77.4775 18.2067 77.4775 19.3C77.4775 20.02 77.4375 20.7 77.3575 21.34C78.1042 21.2333 78.9175 20.9 79.7975 20.34C80.7042 19.7533 81.1975 19.46 81.2775 19.46C81.8642 19.46 82.1575 19.8067 82.1575 20.5C82.1575 20.9267 81.9975 21.2867 81.6775 21.58C80.5842 22.6467 78.9975 23.2867 76.9175 23.5C75.8508 26.9667 73.7308 28.7 70.5575 28.7C68.9042 28.7 67.5575 28.1933 66.5175 27.18C65.4775 26.1667 64.9575 24.8333 64.9575 23.18V22.9C65.0642 19.8867 65.5442 16.82 66.3975 13.7C67.2508 10.58 68.4642 7.9 70.0375 5.66C71.6108 3.39333 73.3175 2.26 75.1575 2.26C76.0375 2.26 76.6775 2.55333 77.0775 3.14C77.5042 3.7 77.7175 4.40667 77.7175 5.26L77.6775 5.82ZM74.0775 5.54C73.3042 5.54 72.4775 6.36667 71.5975 8.02C70.7175 9.64667 69.9975 11.3933 69.4375 13.26C68.9042 15.1 68.5575 16.66 68.3975 17.94C69.0908 17.06 69.6642 16.3133 70.1175 15.7C70.2775 15.46 70.5708 15.06 70.9975 14.5C71.4242 13.9133 71.7308 13.4733 71.9175 13.18C72.1042 12.86 72.3708 12.4333 72.7175 11.9C73.9442 9.9 74.6108 8.19333 74.7175 6.78V6.46C74.7175 5.84667 74.5042 5.54 74.0775 5.54ZM86.23 26.1C87.59 26.1 88.6033 25.14 89.27 23.22C88.5233 22.9 88.15 22.3 88.15 21.42C88.15 21.0467 88.2967 20.6867 88.59 20.34C88.91 19.9933 89.2833 19.7667 89.71 19.66V19.54C89.71 18.98 89.59 18.5667 89.35 18.3C89.11 18.0333 88.63 17.9 87.91 17.9C86.79 17.9 85.83 18.42 85.03 19.46C84.23 20.4733 83.83 21.6067 83.83 22.86C83.83 25.02 84.63 26.1 86.23 26.1ZM92.99 5.82C92.8567 7.42 92.1367 9.36667 90.83 11.66C89.5233 13.9533 88.2033 15.62 86.87 16.66L87.31 16.38C88.0833 15.8467 89.0433 15.58 90.19 15.58C90.8033 15.58 91.39 15.9267 91.95 16.62C92.51 17.3133 92.79 18.2067 92.79 19.3C92.79 20.02 92.75 20.7 92.67 21.34C93.4167 21.2333 94.23 20.9 95.11 20.34C96.0167 19.7533 96.51 19.46 96.59 19.46C97.1767 19.46 97.47 19.8067 97.47 20.5C97.47 20.9267 97.31 21.2867 96.99 21.58C95.8967 22.6467 94.31 23.2867 92.23 23.5C91.1633 26.9667 89.0433 28.7 85.87 28.7C84.2167 28.7 82.87 28.1933 81.83 27.18C80.79 26.1667 80.27 24.8333 80.27 23.18V22.9C80.3767 19.8867 80.8567 16.82 81.71 13.7C82.5633 10.58 83.7767 7.9 85.35 5.66C86.9233 3.39333 88.63 2.26 90.47 2.26C91.35 2.26 91.99 2.55333 92.39 3.14C92.8167 3.7 93.03 4.40667 93.03 5.26L92.99 5.82ZM89.39 5.54C88.6167 5.54 87.79 6.36667 86.91 8.02C86.03 9.64667 85.31 11.3933 84.75 13.26C84.2167 15.1 83.87 16.66 83.71 17.94C84.4033 17.06 84.9767 16.3133 85.43 15.7C85.59 15.46 85.8833 15.06 86.31 14.5C86.7367 13.9133 87.0433 13.4733 87.23 13.18C87.4167 12.86 87.6833 12.4333 88.03 11.9C89.2567 9.9 89.9233 8.19333 90.03 6.78V6.46C90.03 5.84667 89.8167 5.54 89.39 5.54ZM100.263 28.62C98.9292 28.62 97.9025 28.0867 97.1825 27.02C96.4625 25.9267 96.1025 24.4467 96.1025 22.58C96.1025 22.02 96.1158 21.5933 96.1425 21.3C96.4892 17.4333 97.5025 13.4067 99.1825 9.22C100.009 7.22 101.036 5.56667 102.263 4.26C103.489 2.92667 104.783 2.26 106.143 2.26C106.943 2.26 107.583 2.52667 108.063 3.06C108.543 3.56667 108.783 4.20667 108.783 4.98V5.3C108.516 7.99333 107.423 10.8067 105.503 13.74C103.583 16.6733 101.463 19.0467 99.1425 20.86C99.0358 21.7133 98.9825 22.3667 98.9825 22.82C98.9825 24.98 99.6225 26.06 100.903 26.06C102.236 26.06 103.716 25.1267 105.343 23.26C105.529 23.0733 105.756 22.98 106.023 22.98C106.316 22.98 106.583 23.1 106.823 23.34C107.089 23.5533 107.223 23.8333 107.223 24.18C107.223 24.5 107.063 24.8333 106.743 25.18C104.716 27.4733 102.556 28.62 100.263 28.62ZM105.143 5.54C104.023 5.54 102.889 6.96667 101.743 9.82C100.623 12.6733 99.8625 15.38 99.4625 17.94C101.036 16.18 102.476 14.18 103.783 11.94C105.116 9.7 105.796 7.83333 105.822 6.34C105.822 5.80667 105.596 5.54 105.143 5.54ZM104.903 23.34C104.903 21.3667 105.543 19.54 106.823 17.86C108.13 16.1533 109.703 15.3 111.543 15.3C112.637 15.3 113.543 15.6067 114.263 16.22C114.983 16.8333 115.343 17.66 115.343 18.7C115.343 20.1667 114.743 21.3533 113.543 22.26C112.343 23.1667 110.53 23.8733 108.103 24.38C108.477 25.5267 109.437 26.1 110.983 26.1C113.117 26.1 115.13 25.1933 117.023 23.38C117.13 23.2733 117.29 23.22 117.503 23.22C117.743 23.22 117.957 23.3133 118.143 23.5C118.357 23.6867 118.463 23.9133 118.463 24.18C118.463 24.4467 118.37 24.7133 118.183 24.98C117.517 25.9133 116.463 26.78 115.023 27.58C113.583 28.3533 112.077 28.74 110.503 28.74C108.957 28.74 107.637 28.2867 106.543 27.38C105.45 26.4467 104.903 25.1 104.903 23.34ZM111.583 17.9C110.73 17.9 109.903 18.4067 109.103 19.42C108.303 20.4067 107.903 21.4733 107.903 22.62C111.237 21.4733 112.903 20.2733 112.903 19.02C112.903 18.2733 112.463 17.9 111.583 17.9Z" fill="black"/>
</svg>
